<svg xmlns="http://www.w3.org/2000/svg" height="48px" viewBox="0 -960 960 960" width="48px" fill="#000000"><path d="M228-266q60-41 121.5-63.5T480.22-352q69.22 0 131.92 23.27Q674.84-305.46 734-266q41-54 58.5-104.46Q810-420.91 810-480q0-140.25-94.83-235.12-94.82-94.88-235-94.88Q340-810 245-715.12 150-620.25 150-480q0 60 17.53 109.72Q185.05-320.57 228-266Zm152.42-220.5Q340-527 340-585.5t40.42-99.5q40.42-41 99.58-41t99.58 41Q620-644 620-585.5t-40.42 99Q539.16-446 480-446t-99.58-40.5ZM479.5-59Q393-59 317.11-91.79q-75.89-32.79-134.19-91.08-58.31-58.28-91.12-134.14Q59-392.87 59-480q0-85 33-162t91-135q58-58 133.91-91.5Q392.81-902 480-902q85 0 162 33.5T777-777q58 58 91.5 135T902-479.5q0 86.5-33.5 162.5T777-183q-58 58-135 91T479.5-59Zm101-104.5Q627-177 679-216q-52-36-99.5-52T480-284q-52 0-99 16t-98 52q51 39 97 52.5T480-150q54 0 100.5-13.5Zm-49.57-371Q551-554 551-585.5T530.93-637q-20.06-20-50.93-20t-50.93 20Q409-617 409-585.5t20.07 51Q449.13-515 480-515t50.93-19.5ZM480-586Zm1 369Z"/></svg>