<svg xmlns="http://www.w3.org/2000/svg" height="48px" viewBox="0 -960 960 960" width="48px" fill="#000000"><path d="M519-280.81q16-15.82 16-39.19v-145q0-23.38-16-39.19Q503-520 480-520t-39 15.81q-16 15.81-16 39.19v145q0 23.37 16 39.19Q457-265 480-265t39-15.81Zm3.5-316.44Q540-614.5 540-640t-17.25-42.75Q505.5-700 480-700t-42.75 17.25Q420-665.5 420-640t17.5 42.75Q455-580 480-580t42.5-17.25ZM480-46q-91 0-169.99-34.08-78.98-34.09-137.41-92.52-58.43-58.43-92.52-137.41Q46-389 46-480q0-91 34.08-169.99 34.09-78.98 92.52-137.41 58.43-58.43 137.41-92.52Q389-914 480-914q91 0 169.99 34.08 78.98 34.09 137.41 92.52 58.43 58.43 92.52 137.41Q914-571 914-480q0 91-34.08 169.99-34.09 78.98-92.52 137.41-58.43 58.43-137.41 92.52Q571-46 480-46Zm0-126q130 0 219-89t89-219q0-130-89-219t-219-89q-130 0-219 89t-89 219q0 130 89 219t219 89Zm0-308Z"/></svg>