<svg xmlns="http://www.w3.org/2000/svg" height="48px" viewBox="0 -960 960 960" width="48px" fill="#000000"><path d="M478-139q-143 0-242.5-99.5T136-480q0-142 99.5-242t242.88-100Q567-822 637-786t120 103v-105q0-14.03 8.98-24.01 8.98-9.99 24-9.99t25.52 9.99Q826-802.03 826-788v205q0 20-13.78 33-13.77 13-33.22 13H573q-14.03 0-23.51-10.68-9.49-10.69-9.49-24.5 0-13.82 9.99-23.32 9.98-9.5 24.01-9.5h128q-40-58-94.5-92T478-731q-104.75 0-177.87 72.88-73.13 72.88-73.13 178t73.13 177.62Q373.25-230 478-230q67 0 125.11-33.31Q661.22-296.63 695-356q12-16 29-22t35.06 1q17.94 6 24.44 22.5T782-323q-44 85-125.59 134.5T478-139Z"/></svg>