<svg xmlns="http://www.w3.org/2000/svg" viewBox="0 0 512 512" style="height: 512px; width: 512px;"><g class="" transform="translate(0,0)" style=""><g><path d="M119.436 36C103.31 36 90.236 53.237 90.236 74.5L90.236 437.5C90.236 458.763 103.31 476 119.436 476L394.734 476C410.86 476 423.932 458.763 423.932 437.5L423.932 74.5C423.932 53.237 410.86 36 394.734 36L119.436 36Z" class="" fill="#fff" fill-opacity="1" stroke="#000000" stroke-opacity="1" stroke-width="8"></path><path d="M176.65 52.174L176.652 52.174C190.264 51.856 203.154 62.029 203.725 80.217C204.701 111.307 155.987 133.162 151.415 150.232C146.417 131.583 100.001 112.659 98.965 80.217C97.97 49.061 136.366 42.307 151.415 68.369C157.675 57.523 167.337 52.392 176.65 52.174Z" class="" fill="#fb2c36" fill-opacity="1" stroke="#000000" stroke-opacity="1" stroke-width="8"></path><path d="M245.91 165.004C260.888 165.004 274.557 168.808 286.92 176.416C299.283 183.945 309.19 194.801 316.639 208.986C324.088 223.092 327.812 238.902 327.812 256.416C327.812 272.424 324.88 286.69 319.016 299.211C313.23 311.732 304.118 323.183 291.676 333.564C292.944 336.814 294.33 341.252 295.836 346.879C298.61 357.419 301.265 364.273 303.801 367.443C306.337 370.613 309.229 372.197 312.479 372.197C315.489 372.197 318.065 370.494 320.205 367.086C322.424 363.757 323.613 358.172 323.771 350.326L330.904 350.326C330.825 364.591 328.05 375.09 322.582 381.826C317.114 388.562 309.982 391.932 301.186 391.932C293.023 391.932 286.366 388.642 281.215 382.064C276.143 375.566 272.775 363.046 271.111 344.502C266.673 345.612 262.394 346.443 258.273 346.998C254.153 347.553 250.229 347.83 246.503 347.83C231.763 347.83 218.133 344.026 205.611 336.418C193.169 328.731 183.265 317.755 175.895 303.49C168.604 289.146 164.959 272.98 164.959 254.99C164.959 229.472 173.239 207.68 189.803 189.611C204.86 173.207 223.563 165.004 245.91 165.004Z" class="" fill="#fb2c36" fill-opacity="1" stroke="#000000" stroke-opacity="1" stroke-width="8"></path><path d="M246.268 174.039C236.441 174.039 227.603 176.812 219.758 182.359C211.991 187.907 205.889 196.585 201.451 208.393C197.093 220.121 194.914 236.091 194.914 256.299C194.914 270.563 196.221 282.806 198.836 293.029C201.451 303.252 205.533 312.959 211.08 322.152C210.922 318.507 210.842 315.576 210.842 313.357C210.842 303.531 213.974 295.447 220.234 289.107C226.574 282.767 234.855 279.597 245.078 279.597C255.38 279.597 264.018 283.045 270.992 289.939C276.222 295.169 281.136 304.243 285.732 317.16C290.012 309.077 293.142 300.321 295.123 290.89C297.104 281.46 298.096 269.65 298.096 255.465C298.096 235.495 295.916 219.725 291.556 208.155C287.198 196.505 281.056 187.907 273.131 182.359C265.206 176.812 256.253 174.039 246.268 174.039Z" class="selected" fill="#ffffff" fill-opacity="1" stroke="#000000" stroke-opacity="1" stroke-width="8"></path><path d="M244.721 288.869C237.271 288.869 231.169 291.247 226.414 296.002C221.659 300.757 219.284 306.897 219.284 314.426C219.284 321.876 222.216 328.929 228.08 335.586C233.707 338.043 239.61 339.271 245.791 339.271C250.546 339.271 255.023 338.677 259.223 337.488C263.409 336.305 267.411 334.545 271.111 332.258C270.953 317.993 269.09 307.652 265.523 301.232C261.006 292.991 254.072 288.869 244.721 288.869Z" class="" fill="#ffffff" fill-opacity="1" stroke="#000000" stroke-opacity="1" stroke-width="8"></path><path d="M360.729 361.769C365.301 378.84 414.018 400.693 413.041 431.783C412.471 449.972 399.577 460.147 385.965 459.828L385.967 459.826C376.653 459.609 366.992 454.477 360.73 443.631C345.682 469.692 307.285 462.938 308.28 431.783C309.316 399.341 355.731 380.419 360.729 361.77Z" class="" fill="#fb2c36" fill-opacity="1" stroke="#000000" stroke-opacity="1" stroke-width="8"></path></g></g></svg>