<svg xmlns="http://www.w3.org/2000/svg" viewBox="0 0 512 512" style="height: 512px; width: 512px;"><g class="" transform="translate(0,0)" style=""><g><path d="M119.436 36C103.31 36 90.236 53.237 90.236 74.5L90.236 437.5C90.236 458.763 103.31 476 119.436 476L394.734 476C410.86 476 423.932 458.763 423.932 437.5L423.932 74.5C423.932 53.237 410.86 36 394.734 36L119.436 36Z" class="" fill="#fff" fill-opacity="1" stroke="#000000" stroke-opacity="1" stroke-width="8"></path><path d="M176.652 52.174C190.265 51.855 203.156 62.028 203.727 80.217C204.703 111.307 155.987 133.162 151.414 150.232C146.417 131.583 100.001 112.659 98.964 80.217C97.97 49.061 136.368 42.307 151.416 68.369C157.678 57.523 167.339 52.391 176.652 52.174Z" class="" fill="#fb2c36" fill-opacity="1" stroke="#000000" stroke-opacity="1" stroke-width="8"></path><path d="M249.715 176.535C259.621 176.535 268.219 178.239 275.51 181.646C282.88 185.054 288.468 189.69 292.271 195.555C296.155 201.419 298.096 207.559 298.096 213.979C298.096 228.877 288.704 241.279 269.922 251.186C282.602 255.782 291.756 261.805 297.382 269.254C303.01 276.624 305.822 285.541 305.822 296.002C305.822 308.761 301.741 319.895 293.578 329.404C283.038 341.688 268.02 347.83 248.525 347.83C231.329 347.83 217.737 343.709 207.752 335.467C197.767 327.146 192.775 316.804 192.775 304.441C192.775 295.169 195.628 287.086 201.334 280.191C207.119 273.218 217.064 267.313 231.17 262.479C210.328 253.524 199.906 239.695 199.906 220.992C199.906 208.867 204.582 198.446 213.934 189.729C223.364 180.932 235.292 176.535 249.714 176.535Z" class="" fill="#fb2c36" fill-opacity="1" stroke="#000000" stroke-opacity="1" stroke-width="8"></path><path d="M248.883 184.736C238.501 184.736 230.418 187.272 224.633 192.344C218.848 197.336 215.955 203.876 215.955 211.959C215.955 219.963 218.451 226.343 223.443 231.098C228.515 235.853 240.958 241.518 260.77 248.096C269.09 243.341 274.678 238.665 277.531 234.068C280.384 229.393 281.811 223.29 281.811 215.762C281.811 205.856 278.996 198.209 273.369 192.82C267.743 187.431 259.581 184.736 248.883 184.736Z" class="selected" fill="#ffffff" fill-opacity="1" stroke="#000000" stroke-opacity="1" stroke-width="8"></path><path d="M240.086 265.806C228.833 270.562 221.026 275.912 216.668 281.856C212.309 287.799 210.131 295.09 210.131 303.729C210.131 314.982 213.418 323.737 219.996 329.998C226.653 336.179 236.203 339.27 248.645 339.27C261.8 339.27 272.024 336.18 279.315 329.998C286.605 323.738 290.25 315.496 290.25 305.273C290.25 296.001 287.08 288.987 280.74 284.233C274.48 279.478 260.928 273.335 240.086 265.807Z" class="" fill="#ffffff" fill-opacity="1" stroke="#000000" stroke-opacity="1" stroke-width="8"></path><path d="M360.729 361.77C365.301 378.84 414.018 400.693 413.041 431.783C412.471 449.972 399.579 460.147 385.967 459.828L385.967 459.826C376.653 459.609 366.992 454.477 360.73 443.631C345.682 469.692 307.285 462.938 308.28 431.783C309.316 399.341 355.731 380.419 360.729 361.77Z" class="" fill="#fb2c36" fill-opacity="1" stroke="#000000" stroke-opacity="1" stroke-width="8"></path></g></g></svg>