<svg xmlns="http://www.w3.org/2000/svg" viewBox="0 0 512 512" style="height: 512px; width: 512px;"><g class="" transform="translate(0,0)" style=""><g><path d="M119.436 36C103.31 36 90.236 53.237 90.236 74.5L90.236 437.5C90.236 458.763 103.31 476 119.436 476L394.734 476C410.86 476 423.932 458.763 423.932 437.5L423.932 74.5C423.932 53.237 410.86 36 394.734 36L119.436 36Z" class="selected" fill="#fff" fill-opacity="1" stroke="#000000" stroke-opacity="1" stroke-width="8"></path><path d="M176.65 52.174L176.652 52.174C190.264 51.856 203.156 62.029 203.727 80.217C204.703 111.307 155.987 133.162 151.414 150.232C146.417 131.583 100.001 112.659 98.964 80.217C97.97 49.062 136.368 42.307 151.416 68.369C157.677 57.523 167.337 52.392 176.65 52.174Z" class="" fill="#fb2c36" fill-opacity="1" stroke="#000000" stroke-opacity="1" stroke-width="8"></path><path d="M246.623 176.535C261.522 176.535 273.409 180.537 282.285 188.541C291.161 196.545 295.6 206.45 295.6 218.258C295.6 226.738 293.182 234.068 288.348 240.25C283.593 246.431 275.352 251.9 263.623 256.654C274.956 259.428 283.791 264.024 290.131 270.444C298.214 278.606 302.256 288.71 302.256 300.756C302.256 314.386 297.422 325.323 287.754 333.564C276.738 343.074 262.394 347.83 244.721 347.83C234.101 347.83 224.949 346.087 217.261 342.6C209.654 339.113 203.948 334.397 200.145 328.453C196.341 322.51 194.439 315.813 194.439 308.363C194.439 302.34 195.906 297.587 198.838 294.1C201.77 290.613 205.455 288.87 209.893 288.87C213.934 288.87 217.183 290.216 219.641 292.91C222.097 295.525 223.324 299.132 223.324 303.729C223.324 306.661 222.69 309.156 221.422 311.217C220.154 313.198 217.935 315.061 214.766 316.805C211.358 318.627 209.654 320.371 209.654 322.035C209.654 324.413 210.844 327.105 213.221 330.117C215.678 333.049 219.244 335.427 223.92 337.25C228.675 338.993 234.658 339.865 241.87 339.865C254.311 339.865 263.504 336.813 269.447 330.711C275.47 324.53 278.48 314.665 278.48 301.113C278.48 286.928 275.905 276.863 270.754 270.92C265.682 264.897 258.115 261.885 248.051 261.885C245.356 261.885 241.987 262.202 237.945 262.835C234.696 263.311 232.358 263.549 230.932 263.549C228.554 263.549 226.692 263.074 225.346 262.123C224.078 261.093 223.443 259.824 223.443 258.318C223.443 256.654 224.038 255.388 225.227 254.516C226.495 253.565 228.515 253.088 231.289 253.088L237.826 253.326L243.533 253.564C253.598 253.564 261.166 250.989 266.238 245.838C271.31 240.687 273.846 232.721 273.846 221.943C273.846 208.709 271.428 199.319 266.594 193.771C261.76 188.145 254.548 185.332 244.959 185.332C236.162 185.332 229.15 186.916 223.919 190.086C218.689 193.256 216.074 196.188 216.074 198.883C216.074 200.626 217.578 202.964 220.59 205.896C224.87 209.859 227.01 213.978 227.01 218.258C227.01 221.507 225.82 224.242 223.443 226.461C221.066 228.68 218.016 229.789 214.291 229.789C210.329 229.789 207.079 228.283 204.543 225.271C202.086 222.261 200.857 218.061 200.857 212.671C200.857 204.271 203.87 196.823 209.893 190.324C218.451 181.131 230.694 176.535 246.623 176.535Z" class="" fill="#fb2c36" fill-opacity="1" stroke="#000000" stroke-opacity="1" stroke-width="8"></path><path d="M360.73 361.77C365.302 378.84 414.019 400.693 413.042 431.783C412.472 449.972 399.58 460.147 385.968 459.828L385.968 459.826C376.654 459.609 366.993 454.477 360.731 443.631C345.683 469.692 307.286 462.938 308.281 431.783C309.317 399.341 355.732 380.419 360.73 361.77Z" class="" fill="#fb2c36" fill-opacity="1" stroke="#000000" stroke-opacity="1" stroke-width="8"></path></g></g></svg>