<svg xmlns="http://www.w3.org/2000/svg" viewBox="0 0 512 512" style="height: 512px; width: 512px;"><g class="" transform="translate(0,0)" style=""><g><path d="M119.436 36C103.31 36 90.236 53.237 90.236 74.5L90.236 437.5C90.236 458.763 103.31 476 119.436 476L394.734 476C410.86 476 423.932 458.763 423.932 437.5L423.932 74.5C423.932 53.237 410.86 36 394.734 36L119.436 36Z" class="" fill="#fff" fill-opacity="1" stroke="#000000" stroke-opacity="1" stroke-width="8"></path><path d="M176.65 52.174L176.652 52.174C190.264 51.856 203.154 62.029 203.725 80.217C204.701 111.307 155.987 133.162 151.415 150.232C146.417 131.583 100.001 112.659 98.965 80.217C97.97 49.062 136.366 42.307 151.415 68.369C157.675 57.523 167.337 52.392 176.65 52.174Z" class="" fill="#fb2c36" fill-opacity="1" stroke="#000000" stroke-opacity="1" stroke-width="8"></path><path d="M313.785 176.535C329.238 176.535 342.118 182.558 352.42 194.604C365.179 209.423 371.557 231.89 371.557 262.004C371.557 289.978 366.011 311.296 354.916 325.957C343.821 340.539 330.427 347.83 314.736 347.83C299.6 347.83 286.96 341.688 276.816 329.404C264.136 313.951 257.796 291.642 257.796 262.479C257.796 234.742 263.78 212.672 275.746 196.268C285.336 183.112 298.015 176.535 313.786 176.535Z" class="" fill="#fb2c36" fill-opacity="1" stroke="#000000" stroke-opacity="1" stroke-width="8"></path><path d="M187.424 179.625L192.893 179.625L192.893 327.979C192.893 330.197 193.685 331.901 195.27 333.089C197.568 334.754 200.382 335.586 203.71 335.586L226.771 335.586L226.771 344.502L141.303 344.502L141.303 335.586L161.035 335.586C165.156 335.586 168.206 334.634 170.188 332.732C172.168 330.752 173.16 328.136 173.16 324.887L173.16 212.79C173.16 210.492 172.248 208.55 170.426 206.966C168.603 205.381 166.265 204.586 163.412 204.586L137.023 204.586L137.023 196.386C149.386 194.801 159.411 192.7 167.098 190.085C174.785 187.391 181.559 183.903 187.424 179.624Z" class="" fill="#fb2c36" fill-opacity="1" stroke="#000000" stroke-opacity="1" stroke-width="8"></path><path d="M314.498 185.094C304.038 185.094 295.876 190.125 290.012 200.189C284.147 210.175 281.215 230.938 281.215 262.479C281.215 293.306 284.227 313.872 290.25 324.174C296.352 334.476 304.513 339.627 314.736 339.627C325.039 339.627 332.964 334.873 338.512 325.363C345.089 314.031 348.377 293.346 348.377 263.311C348.377 232.245 345.287 211.444 339.105 200.904C332.925 190.364 324.721 185.094 314.498 185.094Z" class="" fill="#ffffff" fill-opacity="1" stroke="#000000" stroke-opacity="1" stroke-width="8"></path><path d="M360.728 361.77C365.301 378.84 414.018 400.693 413.041 431.783C412.471 449.972 399.577 460.147 385.965 459.828L385.967 459.826C376.653 459.609 366.992 454.477 360.73 443.631C345.682 469.692 307.285 462.938 308.28 431.783C309.316 399.341 355.731 380.419 360.729 361.77Z" class="selected" fill="#fb2c36" fill-opacity="1" stroke="#000000" stroke-opacity="1" stroke-width="8"></path></g></g></svg>