<svg xmlns="http://www.w3.org/2000/svg" viewBox="0 0 512 512" style="height: 512px; width: 512px;"><g class="" transform="translate(0,0)" style=""><g><path d="M119.436 36C103.31 36 90.236 53.237 90.236 74.5L90.236 437.5C90.236 458.763 103.31 476 119.436 476L394.734 476C410.86 476 423.932 458.763 423.932 437.5L423.932 74.5C423.932 53.237 410.86 36 394.734 36L119.436 36Z" class="" fill="#fff" fill-opacity="1" stroke="#000000" stroke-opacity="1" stroke-width="8"></path><path d="M146.318 39.717L146.32 39.717L193.713 97.987L146.32 156.273L98.945 97.986L146.318 39.716Z" class="" fill="#2b7fff" fill-opacity="1" stroke="#000000" stroke-opacity="1" stroke-width="8"></path><path d="M270.754 179.625L278.48 179.625L278.48 292.078L305.82 292.078L305.82 302.182L278.48 302.182L278.48 327.502C278.48 329.721 279.352 331.504 281.096 332.852C283.632 334.674 286.564 335.586 289.893 335.586L299.996 335.586L299.996 344.5L234.021 344.5L234.021 335.586L246.266 335.586C250.386 335.586 253.399 334.714 255.301 332.971C257.282 331.227 258.271 328.691 258.271 325.363L258.271 302.182L190.991 302.182L190.991 290.772L270.754 179.625Z" class="" fill="#2b7fff" fill-opacity="1" stroke="#000000" stroke-opacity="1" stroke-width="8"></path><path d="M258.27 211.84L200.856 292.078L258.27 292.078L258.27 211.84Z" class="selected" fill="#ffffff" fill-opacity="1" stroke="#000000" stroke-opacity="1" stroke-width="8"></path><path d="M365.66 352.523L365.661 352.523L413.054 410.793L365.661 469.08L318.286 410.793L365.659 352.523Z" class="" fill="#2b7fff" fill-opacity="1" stroke="#000000" stroke-opacity="1" stroke-width="8"></path></g></g></svg>