<svg xmlns="http://www.w3.org/2000/svg" viewBox="0 0 512 512" style="height: 512px; width: 512px;"><g class="" transform="translate(0,0)" style=""><g><path d="M119.436 36C103.31 36 90.236 53.237 90.236 74.5L90.236 437.5C90.236 458.763 103.31 476 119.436 476L394.734 476C410.86 476 423.932 458.763 423.932 437.5L423.932 74.5C423.932 53.237 410.86 36 394.734 36L119.436 36Z" class="" fill="#fff" fill-opacity="1" stroke="#000000" stroke-opacity="1" stroke-width="8"></path><path d="M176.652 52.174C190.265 51.855 203.156 62.028 203.727 80.217C204.703 111.307 155.987 133.162 151.414 150.232C146.417 131.583 100.001 112.659 98.964 80.217C97.97 49.062 136.368 42.31 151.416 68.371C157.678 57.525 167.339 52.393 176.652 52.176L176.652 52.174Z" class="" fill="#fb2c36" fill-opacity="1" stroke="#000000" stroke-opacity="1" stroke-width="8"></path><path d="M259.818 176.535C271.388 176.535 281.216 179.705 289.298 186.045C296.035 191.196 299.402 197.378 299.402 204.59C299.402 209.424 297.898 213.386 294.887 216.477C291.955 219.567 288.347 221.113 284.068 221.113C280.106 221.113 276.698 219.805 273.846 217.189C271.072 214.574 269.686 211.484 269.686 207.918C269.686 205.541 270.636 202.845 272.537 199.834C274.281 197.06 275.152 194.882 275.152 193.297C275.152 191.077 274.083 189.255 271.943 187.828C269.09 186.005 265.168 185.094 260.176 185.094C252.489 185.094 245.475 187.512 239.135 192.346C232.795 197.18 227.407 205.501 222.969 217.309C218.61 229.037 216.429 242.232 216.429 256.893C216.429 259.033 216.549 262.243 216.787 266.521C222.968 258.28 229.466 252.375 236.281 248.809C243.097 245.242 250.586 243.461 258.748 243.461C271.903 243.461 282.919 247.938 291.795 256.893C300.75 265.768 305.229 277.022 305.229 290.653C305.229 307.057 299.958 320.688 289.418 331.545C278.878 342.402 265.841 347.83 250.308 347.83C239.372 347.83 229.625 344.937 221.066 339.152C212.508 333.288 205.493 324.175 200.026 311.812C194.636 299.45 191.943 285.027 191.943 268.543C191.943 250.713 195.271 234.545 201.928 220.043C208.585 205.541 217.065 194.683 227.368 187.471C237.748 180.18 248.565 176.535 259.818 176.535Z" class="" fill="#fb2c36" fill-opacity="1" stroke="#000000" stroke-opacity="1" stroke-width="8"></path><path d="M252.211 255.109C242.305 255.109 234.181 258.716 227.841 265.928C221.581 273.06 218.451 283.124 218.451 296.121C218.451 310.227 221.501 321.004 227.604 328.453C233.706 335.903 241.474 339.627 250.904 339.627C260.255 339.627 267.782 336.102 273.488 329.049C279.194 321.996 282.047 311.455 282.047 297.428C282.047 282.529 279.394 271.753 274.084 265.096C268.854 258.439 261.562 255.109 252.211 255.109Z" class="selected" fill="#ffffff" fill-opacity="1" stroke="#000000" stroke-opacity="1" stroke-width="8"></path><path d="M360.729 361.769C365.301 378.84 414.018 400.693 413.041 431.783C412.471 449.972 399.579 460.147 385.967 459.828L385.967 459.826C376.653 459.609 366.992 454.477 360.73 443.631C345.682 469.692 307.285 462.939 308.28 431.783C309.316 399.341 355.731 380.419 360.729 361.77Z" class="" fill="#fb2c36" fill-opacity="1" stroke="#000000" stroke-opacity="1" stroke-width="8"></path></g></g></svg>