<svg xmlns="http://www.w3.org/2000/svg" viewBox="0 0 512 512" style="height: 512px; width: 512px;"><g class="" transform="translate(0,0)" style=""><g><path d="M119.434 36C103.308 36 90.234 53.237 90.234 74.5L90.234 437.5C90.234 458.763 103.308 476 119.434 476L394.732 476C410.858 476 423.93 458.763 423.93 437.5L423.93 74.5C423.93 53.237 410.858 36 394.732 36Z" class="" fill="#fff" fill-opacity="1" stroke="#000000" stroke-opacity="1" stroke-width="8"></path><path d="M176.65 52.174C190.263 51.855 203.154 62.028 203.725 80.217C204.701 111.307 155.985 133.162 151.412 150.232C146.415 131.583 99.999 112.659 98.962 80.217C97.968 49.062 136.366 42.31 151.414 68.371C157.676 57.525 167.337 52.393 176.65 52.176Z" class="" fill="#fb2c36" fill-opacity="1" stroke="#000000" stroke-opacity="1" stroke-width="8"></path><path d="M246.86 176.535C256.448 176.535 265.324 178.595 273.486 182.717C281.728 186.837 287.91 192.266 292.031 199.002C296.152 205.659 298.213 212.95 298.213 220.875C298.213 226.343 297.182 231.889 295.121 237.515C293.061 243.142 290.051 248.413 286.088 253.326C279.273 261.806 272.258 269.057 265.047 275.08L233.664 301.47C225.739 308.127 219.956 313.793 216.311 318.469C212.665 323.144 230.653 325.482 270.277 325.482C276.221 325.482 280.46 323.936 282.997 320.846C285.532 317.756 288.425 309.196 291.674 295.17L299.758 295.17L295.953 344.502L189.445 344.502L189.445 338.082L224.037 298.736C243.294 277.815 254.863 264.658 258.747 259.27C264.294 251.582 268.335 244.173 270.871 237.041C273.407 229.83 274.676 223.292 274.676 217.428C274.676 207.68 271.981 200.032 266.592 194.484C261.202 188.858 253.714 186.044 244.125 186.044C233.347 186.044 224.552 188.62 217.736 193.771C210.921 198.923 207.514 204.391 207.514 210.176C207.514 212.157 208.028 213.663 209.059 214.693C210.009 215.723 212.07 216.635 215.24 217.428C223.244 219.33 227.246 224.004 227.246 231.453C227.246 235.495 225.899 238.864 223.206 241.559C220.511 244.174 217.063 245.48 212.863 245.48C208.029 245.48 203.788 243.262 200.143 238.824C196.497 234.307 194.676 228.442 194.676 221.23C194.676 213.147 196.735 205.818 200.856 199.24C205.056 192.583 211.357 187.155 219.758 182.955C228.158 178.675 237.191 176.535 246.859 176.535Z" class="selected" fill="#fb2c36" fill-opacity="1" stroke="#000000" stroke-opacity="1" stroke-width="8"></path><path d="M360.728 361.77C365.3 378.84 414.015 400.695 413.038 431.785C412.468 449.974 399.576 460.147 385.964 459.828L385.964 459.826C376.65 459.609 366.989 454.477 360.728 443.631C345.68 469.692 307.282 462.941 308.276 431.785C309.313 399.343 355.73 380.419 360.728 361.769Z" class="" fill="#fb2c36" fill-opacity="1" stroke="#000000" stroke-opacity="1" stroke-width="8"></path></g></g></svg>