<svg xmlns="http://www.w3.org/2000/svg" viewBox="0 0 512 512" style="height: 512px; width: 512px;"><g class="" transform="translate(0,0)" style=""><g><path d="M119.436 36C103.31 36 90.236 53.237 90.236 74.5L90.236 437.5C90.236 458.763 103.31 476 119.436 476L394.734 476C410.86 476 423.932 458.763 423.932 437.5L423.932 74.5C423.932 53.237 410.86 36 394.734 36L119.436 36Z" class="" fill="#fff" fill-opacity="1" stroke="#000000" stroke-opacity="1" stroke-width="8"></path><path d="M146.318 39.717L146.32 39.717L193.713 97.987L146.32 156.273L98.945 97.986L146.318 39.716Z" class="" fill="#2b7fff" fill-opacity="1" stroke="#000000" stroke-opacity="1" stroke-width="8"></path><path d="M246.623 176.533C263.027 176.533 276.697 183.35 287.633 196.98C298.569 210.611 304.037 229.748 304.037 254.395C304.037 274.84 300.987 292.116 294.885 306.223C288.862 320.25 280.858 330.711 270.873 337.605C260.888 344.421 249.634 347.828 237.113 347.828C224.988 347.828 215.479 345.175 208.584 339.865C201.769 334.476 198.359 328.057 198.359 320.607C198.359 315.694 199.748 311.732 202.521 308.721C205.374 305.709 208.939 304.203 213.219 304.203C217.102 304.203 220.392 305.51 223.086 308.125C225.78 310.74 227.126 313.87 227.126 317.515C227.126 320.131 225.898 323.023 223.441 326.193C221.936 328.175 221.184 329.878 221.184 331.305C221.184 333.524 222.49 335.467 225.105 337.131C227.721 338.716 231.922 339.508 237.707 339.508C245.949 339.508 253.2 337.25 259.461 332.732C265.721 328.136 270.793 320.647 274.676 310.266C278.559 299.805 280.5 286.293 280.5 269.73L280.264 259.15C275.112 266.917 269.09 272.782 262.195 276.744C255.301 280.627 247.572 282.568 239.014 282.568C227.126 282.568 216.31 278.407 206.562 270.086C196.894 261.765 192.061 249.522 192.061 233.356C192.061 217.586 197.409 204.191 208.107 193.176C218.885 182.081 231.724 176.533 246.623 176.533Z" class="" fill="#2b7fff" fill-opacity="1" stroke="#000000" stroke-opacity="1" stroke-width="8"></path><path d="M246.979 185.093C238.103 185.093 230.811 188.818 225.105 196.268C219.4 203.638 216.547 214.771 216.547 229.67C216.547 243.3 219.4 253.485 225.105 260.22C230.811 266.877 238.262 270.205 247.455 270.205C256.569 270.205 264.215 266.6 270.396 259.389C276.657 252.177 279.787 242.073 279.787 229.076C279.787 215.604 276.539 204.906 270.041 196.98C263.621 189.056 255.934 185.094 246.979 185.094Z" class="" fill="#ffffff" fill-opacity="1" stroke="#000000" stroke-opacity="1" stroke-width="8"></path><path d="M365.66 352.523L365.662 352.523L413.055 410.793L365.662 469.08L318.285 410.793L365.66 352.523Z" class="selected" fill="#2b7fff" fill-opacity="1" stroke="#000000" stroke-opacity="1" stroke-width="8"></path></g></g></svg>