<svg xmlns="http://www.w3.org/2000/svg" viewBox="0 0 512 512" style="height: 512px; width: 512px;"><g class="" transform="translate(0,0)" style=""><g><path d="M119.436 36C103.31 36 90.236 53.237 90.236 74.5L90.236 437.5C90.236 458.763 103.31 476 119.436 476L394.734 476C410.86 476 423.932 458.763 423.932 437.5L423.932 74.5C423.932 53.237 410.86 36 394.734 36L119.436 36Z" class="" fill="#fff" fill-opacity="1" stroke="#000000" stroke-opacity="1" stroke-width="8"></path><path d="M146.32 39.717L146.322 39.717L193.715 97.988L146.322 156.275L98.945 97.986L146.32 39.716Z" class="" fill="#2b7fff" fill-opacity="1" stroke="#000000" stroke-opacity="1" stroke-width="8"></path><path d="M245.91 165.004C260.888 165.004 274.56 168.808 286.922 176.416C299.285 183.945 309.189 194.803 316.639 208.988C324.089 223.094 327.814 238.904 327.814 256.418C327.814 272.426 324.882 286.69 319.018 299.211C313.232 311.732 304.118 323.183 291.676 333.564C292.944 336.814 294.332 341.252 295.838 346.879C298.612 357.419 301.265 364.273 303.801 367.443C306.337 370.613 309.229 372.199 312.479 372.199C315.489 372.199 318.065 370.496 320.205 367.088C322.425 363.759 323.613 358.172 323.771 350.326L330.904 350.326C330.825 364.591 328.052 375.092 322.584 381.828C317.116 388.564 309.982 391.932 301.186 391.932C293.023 391.932 286.366 388.642 281.215 382.064C276.143 375.566 272.775 363.046 271.111 344.502C266.673 345.612 262.394 346.443 258.273 346.998C254.153 347.553 250.231 347.83 246.506 347.83C231.766 347.83 218.134 344.026 205.613 336.418C193.171 328.731 183.265 317.755 175.895 303.49C168.604 289.146 164.959 272.98 164.959 254.99C164.959 229.472 173.239 207.68 189.803 189.611C204.86 173.207 223.563 165.004 245.91 165.004Z" class="" fill="#2b7fff" fill-opacity="1" stroke="#000000" stroke-opacity="1" stroke-width="8"></path><path d="M246.268 174.039C236.441 174.039 227.605 176.812 219.76 182.359C211.993 187.907 205.89 196.585 201.453 208.393C197.094 220.121 194.914 236.091 194.914 256.299C194.914 270.563 196.223 282.806 198.838 293.029C201.453 303.252 205.535 312.962 211.082 322.154C210.924 318.509 210.844 315.576 210.844 313.357C210.844 303.531 213.974 295.447 220.234 289.107C226.574 282.767 234.855 279.597 245.078 279.597C255.38 279.597 264.018 283.045 270.992 289.939C276.222 295.169 281.136 304.243 285.732 317.16C290.012 309.077 293.142 300.321 295.123 290.89C297.104 281.46 298.096 269.652 298.096 255.467C298.096 235.497 295.917 219.724 291.559 208.154C287.2 196.504 281.058 187.907 273.133 182.359C265.208 176.812 256.253 174.039 246.268 174.039Z" class="selected" fill="#ffffff" fill-opacity="1" stroke="#000000" stroke-opacity="1" stroke-width="8"></path><path d="M244.723 288.869C237.273 288.869 231.171 291.247 226.416 296.002C221.661 300.757 219.283 306.899 219.283 314.428C219.283 321.878 222.216 328.929 228.08 335.586C233.707 338.043 239.61 339.271 245.791 339.271C250.546 339.271 255.024 338.677 259.225 337.488C263.411 336.305 267.411 334.545 271.111 332.258C270.953 317.993 269.091 307.652 265.525 301.232C261.008 292.991 254.074 288.869 244.723 288.869Z" class="" fill="#ffffff" fill-opacity="1" stroke="#000000" stroke-opacity="1" stroke-width="8"></path><path d="M365.663 352.523L365.664 352.523L413.054 410.795L365.664 469.082L318.287 410.793L365.662 352.523Z" class="" fill="#2b7fff" fill-opacity="1" stroke="#000000" stroke-opacity="1" stroke-width="8"></path></g></g></svg>