<svg xmlns="http://www.w3.org/2000/svg" viewBox="0 0 512 512" style="height: 512px; width: 512px;"><g class="" transform="translate(0,0)" style=""><g><path d="M119.436 36C103.31 36 90.236 53.237 90.236 74.5L90.236 437.5C90.236 458.763 103.31 476 119.436 476L394.734 476C410.86 476 423.932 458.763 423.932 437.5L423.932 74.5C423.932 53.237 410.86 36 394.734 36L119.436 36Z" class="" fill="#fff" fill-opacity="1" stroke="#000000" stroke-opacity="1" stroke-width="8"></path><path d="M176.652 52.174C190.265 51.855 203.156 62.028 203.727 80.217C204.703 111.307 155.987 133.162 151.414 150.232C146.417 131.583 100.001 112.659 98.964 80.217C97.97 49.062 136.368 42.307 151.416 68.369C157.678 57.523 167.339 52.391 176.652 52.174Z" class="" fill="#fb2c36" fill-opacity="1" stroke="#000000" stroke-opacity="1" stroke-width="8"></path><path d="M210.962 176.535C231.012 181.132 247.377 183.43 260.057 183.43C266 183.43 271.586 182.875 276.817 181.766C282.047 180.576 285.971 179.23 288.586 177.725C289.933 177.011 290.805 176.655 291.201 176.655C291.994 176.655 292.389 177.249 292.389 178.437C292.389 181.211 290.607 184.896 287.041 189.492C283.475 194.009 278.601 197.616 272.42 200.311C266.318 203.005 259.264 204.351 251.26 204.351C241.988 204.351 230.932 202.925 218.094 200.072L214.172 245.48C220.195 242.47 225.94 240.21 231.408 238.705C236.876 237.199 242.068 236.447 246.98 236.447C262.513 236.447 275.55 241.598 286.09 251.9C296.709 262.203 302.018 274.922 302.018 290.059C302.018 306.859 296.392 320.688 285.138 331.545C273.885 342.402 259.303 347.83 241.393 347.83C227.683 347.83 216.509 343.946 207.871 336.18C199.312 328.334 195.033 319.024 195.033 308.246C195.033 301.748 196.38 296.755 199.074 293.268C201.848 289.701 205.374 287.918 209.654 287.918C213.854 287.918 217.262 289.344 219.877 292.198C222.571 294.971 223.92 298.618 223.92 303.135C223.92 306.542 223.246 309.195 221.898 311.098C220.63 313 218.252 314.586 214.766 315.854C211.279 317.201 209.536 318.747 209.536 320.49C209.536 323.026 210.724 325.839 213.102 328.93C215.479 331.941 219.046 334.437 223.801 336.418C228.635 338.32 234.143 339.271 240.324 339.271C252.449 339.271 261.682 335.507 268.021 327.979C274.441 320.449 277.651 308.205 277.651 291.246C277.651 275.793 274.281 264.501 267.545 257.369C260.809 250.237 252.211 246.669 241.75 246.669C236.995 246.669 232.241 247.542 227.486 249.285C222.731 251.029 217.976 253.644 213.221 257.131C212.666 262.678 211.674 266.403 210.248 268.305C208.822 270.127 207 271.039 204.781 271.039C203.196 271.039 201.928 270.484 200.977 269.375C200.026 268.265 199.551 266.719 199.551 264.738C199.551 261.251 201.175 257.804 204.424 254.396C205.374 253.366 206.049 252.455 206.445 251.662L209.18 216.715C210.29 202.925 210.884 189.532 210.963 176.535Z" class="" fill="#fb2c36" fill-opacity="1" stroke="#000000" stroke-opacity="1" stroke-width="8"></path><path d="M360.73 361.77C365.302 378.84 414.019 400.693 413.042 431.783C412.472 449.972 399.58 460.147 385.968 459.828L385.968 459.826C376.654 459.609 366.993 454.477 360.731 443.631C345.683 469.692 307.286 462.939 308.281 431.783C309.317 399.341 355.732 380.419 360.73 361.77Z" class="selected" fill="#d0021b" fill-opacity="1" stroke="#000000" stroke-opacity="1" stroke-width="8"></path></g></g></svg>