<svg xmlns="http://www.w3.org/2000/svg" viewBox="0 0 512 512" style="height: 512px; width: 512px;"><g class="" transform="translate(0,0)" style=""><g><path d="M119.436 36C103.31 36 90.236 53.237 90.236 74.5L90.236 437.5C90.236 458.763 103.31 476 119.436 476L394.734 476C410.86 476 423.932 458.763 423.932 437.5L423.932 74.5C423.932 53.237 410.86 36 394.734 36L119.436 36Z" class="" fill="#fff" fill-opacity="1" stroke="#000000" stroke-opacity="1" stroke-width="8"></path><path d="M146.318 39.717L146.32 39.717L193.713 97.988L146.32 156.275L98.945 97.986L146.318 39.716Z" class="" fill="#2b7fff" fill-opacity="1" stroke="#000000" stroke-opacity="1" stroke-width="8"></path><path d="M259.816 176.535C271.386 176.535 281.214 179.705 289.296 186.045C296.033 191.196 299.402 197.378 299.402 204.59C299.402 209.424 297.896 213.386 294.885 216.477C291.953 219.567 288.345 221.113 284.066 221.113C280.104 221.113 276.696 219.805 273.844 217.189C271.07 214.574 269.684 211.484 269.684 207.918C269.684 205.541 270.635 202.845 272.537 199.834C274.281 197.06 275.152 194.882 275.152 193.297C275.152 191.077 274.082 189.255 271.942 187.828C269.089 186.005 265.166 185.094 260.174 185.094C252.487 185.094 245.473 187.512 239.133 192.346C232.793 197.18 227.405 205.501 222.967 217.309C218.608 229.037 216.43 242.232 216.43 256.893C216.43 259.033 216.547 262.243 216.785 266.521C222.967 258.28 229.465 252.377 236.281 248.811C243.097 245.244 250.586 243.461 258.748 243.461C271.903 243.461 282.918 247.938 291.793 256.893C300.748 265.768 305.227 277.022 305.227 290.653C305.227 307.057 299.956 320.688 289.416 331.545C278.876 342.402 265.839 347.83 250.306 347.83C239.37 347.83 229.623 344.937 221.064 339.152C212.506 333.288 205.494 324.175 200.025 311.812C194.636 299.45 191.941 285.027 191.941 268.543C191.941 250.713 195.269 234.545 201.926 220.043C208.583 205.541 217.063 194.684 227.366 187.473C237.746 180.182 248.563 176.535 259.816 176.535Z" class="" fill="#2b7fff" fill-opacity="1" stroke="#000000" stroke-opacity="1" stroke-width="8"></path><path d="M252.209 255.109C242.303 255.109 234.179 258.716 227.839 265.928C221.579 273.06 218.449 283.124 218.449 296.121C218.449 310.227 221.501 321.004 227.604 328.453C233.706 335.903 241.472 339.627 250.902 339.627C260.254 339.627 267.782 336.102 273.488 329.049C279.194 321.996 282.047 311.455 282.047 297.428C282.047 282.529 279.392 271.753 274.082 265.096C268.852 258.439 261.56 255.109 252.209 255.109Z" class="selected" fill="#ffffff" fill-opacity="1" stroke="#000000" stroke-opacity="1" stroke-width="8"></path><path d="M365.66 352.523L365.662 352.523L413.055 410.795L365.662 469.082L318.285 410.793L365.66 352.523Z" class="" fill="#2b7fff" fill-opacity="1" stroke="#000000" stroke-opacity="1" stroke-width="8"></path></g></g></svg>