<svg xmlns="http://www.w3.org/2000/svg" viewBox="0 0 512 512" style="height: 512px; width: 512px;"><g class="" transform="translate(0,0)" style=""><g><path d="M119.436 36C103.31 36 90.236 53.237 90.236 74.5L90.236 437.5C90.236 458.763 103.31 476 119.436 476L394.734 476C410.86 476 423.93 458.763 423.93 437.5L423.93 74.5C423.93 53.237 410.86 36 394.734 36L119.436 36Z" class="" fill="#fff" fill-opacity="1" stroke="#000000" stroke-opacity="1" stroke-width="8"></path><path d="M176.65 52.174C190.263 51.855 203.154 62.028 203.725 80.217C204.701 111.307 155.985 133.162 151.412 150.232C146.415 131.583 99.999 112.659 98.962 80.217C97.968 49.062 136.366 42.31 151.414 68.371C157.676 57.525 167.337 52.393 176.65 52.176L176.65 52.174Z" class="" fill="#fb2c36" fill-opacity="1" stroke="#000000" stroke-opacity="1" stroke-width="8"></path><path d="M205.018 176.654C212.784 178.636 221.184 179.627 230.218 179.627L304.156 179.627L304.156 185.094C293.299 204.193 285.176 220.359 279.787 233.594C274.398 246.749 270.317 259.349 267.543 271.394C264.769 283.44 262.948 297.468 262.076 313.477C261.284 326.711 260.53 334.912 259.816 338.082C259.103 341.172 257.636 343.551 255.418 345.215C253.278 346.958 250.465 347.83 246.978 347.83C243.016 347.83 239.926 346.484 237.707 343.79C235.488 341.095 234.379 336.854 234.379 331.068C234.379 325.918 235.291 319.5 237.113 311.813C238.936 304.046 243.095 292.476 249.593 277.102C258.232 256.497 265.721 240.29 272.061 228.482L288.465 198.289L224.037 198.289C219.282 198.289 215.715 199.953 213.337 203.281C211.04 206.61 208.267 216.556 205.017 233.119L196.459 233.119L205.018 176.654Z" class="" fill="#fb2c36" fill-opacity="1" stroke="#000000" stroke-opacity="1" stroke-width="8"></path><path d="M360.728 361.77C365.301 378.84 414.016 400.695 413.039 431.785C412.469 449.973 399.579 460.145 385.967 459.828L385.965 459.828C376.652 459.61 366.99 454.478 360.729 443.633C345.681 469.693 307.283 462.94 308.277 431.785C309.314 399.343 355.731 380.419 360.729 361.77Z" class="selected" fill="#fb2c36" fill-opacity="1" stroke="#000000" stroke-opacity="1" stroke-width="8"></path></g></g></svg>