<svg xmlns="http://www.w3.org/2000/svg" viewBox="0 0 512 512" style="height: 512px; width: 512px;"><g class="" transform="translate(0,0)" style=""><g><path d="M119.436 36C103.31 36 90.236 53.237 90.236 74.5L90.236 437.5C90.236 458.763 103.31 476 119.436 476L394.734 476C410.86 476 423.932 458.763 423.932 437.5L423.932 74.5C423.932 53.237 410.86 36 394.734 36L119.436 36Z" class="" fill="#fff" fill-opacity="1" stroke="#000000" stroke-opacity="1" stroke-width="8"></path><path d="M176.65 52.174L176.652 52.174C190.264 51.856 203.154 62.029 203.725 80.217C204.701 111.307 155.987 133.162 151.415 150.232C146.417 131.583 99.999 112.659 98.963 80.217C97.968 49.062 136.366 42.307 151.414 68.369C157.675 57.523 167.337 52.392 176.65 52.174Z" class="" fill="#fb2c36" fill-opacity="1" stroke="#000000" stroke-opacity="1" stroke-width="8"></path><path d="M270.754 179.625L278.48 179.625L278.48 292.078L305.82 292.078L305.82 302.182L278.48 302.182L278.48 327.502C278.48 329.721 279.352 331.504 281.096 332.852C283.632 334.674 286.564 335.586 289.893 335.586L299.996 335.586L299.996 344.5L234.021 344.5L234.021 335.586L246.266 335.586C250.386 335.586 253.399 334.714 255.301 332.971C257.282 331.227 258.271 328.691 258.271 325.363L258.271 302.182L190.991 302.182L190.991 290.772L270.754 179.625Z" class="" fill="#fb2c36" fill-opacity="1" stroke="#000000" stroke-opacity="1" stroke-width="8"></path><path d="M258.27 211.84L200.856 292.078L258.27 292.078L258.27 211.84Z" class="selected" fill="#ffffff" fill-opacity="1" stroke="#000000" stroke-opacity="1" stroke-width="8"></path><path d="M360.73 361.77C365.302 378.84 414.017 400.693 413.04 431.783C412.47 449.971 399.58 460.143 385.968 459.826L385.966 459.826C376.653 459.608 366.991 454.476 360.73 443.631C345.682 469.692 307.286 462.938 308.28 431.783C309.317 399.341 355.732 380.419 360.73 361.77Z" class="" fill="#fb2c36" fill-opacity="1" stroke="#000000" stroke-opacity="1" stroke-width="8"></path></g></g></svg>