<svg xmlns="http://www.w3.org/2000/svg" viewBox="0 0 512 512" style="height: 512px; width: 512px;"><g class="" transform="translate(0,0)" style=""><g><path d="M119.436 36C103.31 36 90.236 53.237 90.236 74.5L90.236 437.5C90.236 458.763 103.31 476 119.436 476L394.734 476C410.86 476 423.932 458.763 423.932 437.5L423.932 74.5C423.932 53.237 410.86 36 394.734 36L119.436 36Z" class="selected" fill="#fff" fill-opacity="1" stroke="#000000" stroke-opacity="1" stroke-width="8"></path><path d="M176.65 52.174L176.652 52.174C190.264 51.856 203.154 62.029 203.725 80.217C204.701 111.307 155.987 133.162 151.415 150.232C146.417 131.583 100.001 112.659 98.965 80.217C97.97 49.062 136.366 42.308 151.415 68.369C157.675 57.524 167.337 52.392 176.65 52.174Z" class="" fill="#fb2c36" fill-opacity="1" stroke="#000000" stroke-opacity="1" stroke-width="8"></path><path d="M228.316 168.689L306.059 168.689L306.059 177.604L295.004 177.604C290.645 177.604 287.515 178.397 285.614 179.982C283.791 181.567 282.879 183.865 282.879 186.877L282.879 300.875C282.879 309.672 280.74 317.635 276.461 324.768C272.181 331.821 265.92 337.448 257.678 341.648C249.436 345.769 240.126 347.83 229.744 347.83C215.638 347.83 204.107 343.709 195.152 335.467C186.197 327.146 181.719 317.002 181.719 305.035C181.719 296.159 183.977 289.067 188.494 283.758C193.011 278.448 198.559 275.793 205.137 275.793C210.526 275.793 214.964 277.537 218.451 281.023C221.938 284.431 223.681 288.79 223.681 294.1C223.681 298.696 222.255 302.578 219.402 305.748C216.549 308.838 213.26 310.385 209.535 310.385C208.109 310.385 206.128 309.988 203.592 309.195C201.452 308.561 200.026 308.245 199.312 308.245C197.965 308.245 196.896 308.799 196.104 309.908C195.232 311.018 194.794 312.683 194.794 314.902C194.794 320.846 197.767 326.274 203.711 331.188C209.734 336.022 217.103 338.438 225.821 338.438C235.726 338.438 243.532 335.03 249.238 328.215C254.944 321.32 257.797 311.731 257.797 299.447L257.797 186.877C257.797 183.787 256.727 181.488 254.587 179.982C252.527 178.397 248.961 177.604 243.889 177.604L228.316 177.604L228.316 168.689Z" class="" fill="#fb2c36" fill-opacity="1" stroke="#000000" stroke-opacity="1" stroke-width="8"></path><path d="M360.73 361.77C365.302 378.841 414.019 400.694 413.042 431.784C412.472 449.973 399.58 460.146 385.968 459.827C376.654 459.61 366.993 454.478 360.731 443.632C345.683 469.693 307.286 462.939 308.281 431.784C309.317 399.342 355.732 380.42 360.73 361.771Z" class="" fill="#fb2c36" fill-opacity="1" stroke="#000000" stroke-opacity="1" stroke-width="8"></path></g></g></svg>