<svg xmlns="http://www.w3.org/2000/svg" viewBox="0 0 512 512" style="height: 512px; width: 512px;"><g class="" transform="translate(-1,0)" style=""><g><path d="M119.436 36C103.31 36 90.236 53.237 90.236 74.5L90.236 437.5C90.236 458.763 103.31 476 119.436 476L394.734 476C410.86 476 423.932 458.763 423.932 437.5L423.932 74.5C423.932 53.237 410.86 36 394.734 36L119.436 36Z" class="" fill="#fff" fill-opacity="1" stroke="#000000" stroke-opacity="1" stroke-width="8"></path><path d="M146.32 39.717L146.322 39.717L193.712 97.987L146.322 156.273L98.945 97.986L146.32 39.716Z" class="" fill="#2b7fff" fill-opacity="1" stroke="#000000" stroke-opacity="1" stroke-width="8"></path><path d="M242.82 165.004L250.783 165.004L313.904 325.838C316.44 332.336 321.631 335.586 329.477 335.586L334.945 335.586L334.945 344.502L264.811 344.502L264.811 335.586L270.398 335.586C277.689 335.586 282.84 334.794 285.852 333.209C287.912 332.099 288.942 330.394 288.942 328.096C288.942 326.749 288.664 325.322 288.109 323.816L273.489 286.492L204.066 286.492L195.866 307.889C193.726 313.595 192.656 318.111 192.656 321.439C192.656 325.323 194.438 328.652 198.004 331.426C201.649 334.2 206.92 335.586 213.814 335.586L219.758 335.586L219.758 344.502L156.043 344.502L156.043 335.586C162.858 335.586 168.247 334.12 172.209 331.187C176.171 328.176 179.819 322.511 183.146 314.189L242.82 165.004Z" class="" fill="#2b7fff" fill-opacity="1" stroke="#000000" stroke-opacity="1" stroke-width="8"></path><path d="M239.373 198.883L207.871 277.219L270.041 277.219L239.373 198.883Z" class="selected" fill="#ffffff" fill-opacity="1" stroke="#000000" stroke-opacity="1" stroke-width="8"></path><path d="M365.663 352.523L413.055 410.793L365.662 469.08L318.287 410.793L365.662 352.523Z" class="" fill="#2b7fff" fill-opacity="1" stroke="#000000" stroke-opacity="1" stroke-width="8"></path></g></g></svg>