<svg xmlns="http://www.w3.org/2000/svg" viewBox="0 0 512 512" style="height: 512px; width: 512px;"><g class="" transform="translate(0,0)" style=""><g><path d="M119.436 36C103.31 36 90.236 53.237 90.236 74.5L90.236 437.5C90.236 458.763 103.31 476 119.436 476L394.734 476C410.86 476 423.932 458.763 423.932 437.5L423.932 74.5C423.932 53.237 410.86 36 394.734 36L119.436 36Z" class="" fill="#fff" fill-opacity="1" stroke="#000000" stroke-opacity="1" stroke-width="8"></path><path d="M146.32 39.717L146.322 39.717L193.715 97.988L146.322 156.275L98.945 97.986L146.32 39.716Z" class="" fill="#2b7fff" fill-opacity="1" stroke="#000000" stroke-opacity="1" stroke-width="8"></path><path d="M205.02 176.654C212.786 178.636 221.184 179.625 230.219 179.625L304.159 179.625L304.159 185.094C293.301 204.193 285.178 220.359 279.789 233.594C274.4 246.749 270.319 259.349 267.545 271.394C264.771 283.44 262.95 297.468 262.078 313.477C261.286 326.711 260.532 334.912 259.818 338.082C259.105 341.172 257.638 343.551 255.42 345.215C253.28 346.958 250.467 347.83 246.98 347.83C243.018 347.83 239.928 346.484 237.709 343.79C235.49 341.095 234.381 336.853 234.381 331.068C234.381 325.918 235.291 319.5 237.113 311.813C238.936 304.046 243.097 292.476 249.596 277.102C258.234 256.497 265.723 240.29 272.062 228.482L288.467 198.289L224.039 198.289C219.284 198.289 215.717 199.953 213.339 203.281C211.042 206.61 208.269 216.556 205.019 233.119L196.461 233.119L205.02 176.654Z" class="" fill="#2b7fff" fill-opacity="1" stroke="#000000" stroke-opacity="1" stroke-width="8"></path><path d="M365.662 352.524L365.664 352.524L413.054 410.794L365.664 469.082L318.287 410.795L365.662 352.523Z" class="selected" fill="#2b7fff" fill-opacity="1" stroke="#000000" stroke-opacity="1" stroke-width="8"></path></g></g></svg>