<svg xmlns="http://www.w3.org/2000/svg" viewBox="0 0 512 512" style="height: 512px; width: 512px;"><g class="" transform="translate(0,0)" style=""><g><path d="M119.436 36C103.31 36 90.236 53.237 90.236 74.5L90.236 437.5C90.236 458.763 103.31 476 119.436 476L394.734 476C410.86 476 423.932 458.763 423.932 437.5L423.932 74.5C423.932 53.237 410.86 36 394.734 36L119.436 36Z" class="selected" fill="#fff" fill-opacity="1" stroke="#000000" stroke-opacity="1" stroke-width="8"></path><path d="M146.32 39.717L193.713 97.987L146.32 156.273L98.945 97.986L146.32 39.716Z" class="" fill="#2b7fff" fill-opacity="1" stroke="#000000" stroke-opacity="1" stroke-width="8"></path><path d="M228.316 168.689L306.059 168.689L306.059 177.604L295.004 177.604C290.645 177.604 287.515 178.397 285.614 179.982C283.791 181.567 282.879 183.865 282.879 186.877L282.879 300.875C282.879 309.672 280.74 317.635 276.461 324.768C272.181 331.821 265.92 337.448 257.678 341.648C249.436 345.769 240.126 347.83 229.744 347.83C215.638 347.83 204.107 343.709 195.152 335.467C186.197 327.146 181.719 317.002 181.719 305.035C181.719 296.159 183.977 289.067 188.494 283.758C193.011 278.448 198.559 275.793 205.137 275.793C210.526 275.793 214.964 277.537 218.451 281.023C221.938 284.431 223.681 288.79 223.681 294.1C223.681 298.696 222.255 302.578 219.402 305.748C216.549 308.838 213.26 310.385 209.535 310.385C208.109 310.385 206.128 309.988 203.592 309.195C201.452 308.561 200.026 308.245 199.312 308.245C197.965 308.245 196.894 308.801 196.102 309.91C195.23 311.02 194.795 312.683 194.795 314.902C194.795 320.846 197.767 326.274 203.711 331.188C209.734 336.022 217.103 338.439 225.821 338.439C235.726 338.439 243.532 335.03 249.238 328.215C254.944 321.32 257.797 311.733 257.797 299.449L257.797 186.877C257.797 183.787 256.727 181.488 254.587 179.982C252.527 178.397 248.961 177.604 243.889 177.604L228.316 177.604L228.316 168.689Z" class="" fill="#2b7fff" fill-opacity="1" stroke="#000000" stroke-opacity="1" stroke-width="8"></path><path d="M365.662 352.523L413.055 410.793L365.662 469.08L318.287 410.793L365.662 352.523Z" class="" fill="#2b7fff" fill-opacity="1" stroke="#000000" stroke-opacity="1" stroke-width="8"></path></g></g></svg>