<svg xmlns="http://www.w3.org/2000/svg" viewBox="0 0 512 512" style="height: 512px; width: 512px;"><g class="" transform="translate(0,0)" style=""><g><path d="M119.436 36C103.31 36 90.236 53.237 90.236 74.5L90.236 437.502C90.236 458.765 103.31 476 119.436 476L394.734 476C410.86 476 423.932 458.765 423.932 437.502L423.932 74.5C423.932 53.237 410.86 36 394.734 36L119.436 36Z" class="" fill="#fff" fill-opacity="1" stroke="#000000" stroke-opacity="1" stroke-width="8"></path><path d="M176.65 52.174C190.263 51.855 203.154 62.03 203.725 80.219C204.701 111.309 155.987 133.162 151.415 150.232C146.417 131.583 99.999 112.661 98.963 80.219C97.968 49.063 136.366 42.309 151.414 68.371C157.676 57.525 167.339 52.393 176.652 52.176L176.65 52.174Z" class="" fill="#fb2c36" fill-opacity="1" stroke="#000000" stroke-opacity="1" stroke-width="8"></path><path d="M246.623 176.535C263.027 176.535 276.697 183.352 287.633 196.982C298.569 210.613 304.037 229.75 304.037 254.396C304.037 274.842 300.987 292.118 294.885 306.225C288.862 320.251 280.858 330.713 270.873 337.607C260.888 344.423 249.634 347.83 237.113 347.83C224.988 347.83 215.479 345.175 208.584 339.865C201.769 334.476 198.361 328.059 198.361 320.609C198.361 315.696 199.748 311.732 202.521 308.721C205.374 305.709 208.939 304.205 213.219 304.205C217.102 304.205 220.392 305.512 223.086 308.127C225.78 310.742 227.126 313.872 227.126 317.517C227.126 320.133 225.9 323.025 223.443 326.195C221.938 328.177 221.183 329.88 221.183 331.307C221.183 333.526 222.493 335.467 225.107 337.131C227.723 338.716 231.922 339.51 237.707 339.51C245.949 339.51 253.2 337.252 259.461 332.734C265.721 328.138 270.793 320.649 274.676 310.268C278.559 299.807 280.502 286.293 280.502 269.73L280.264 259.152C275.112 266.919 269.09 272.782 262.195 276.744C255.301 280.627 247.575 282.57 239.015 282.57C227.128 282.57 216.31 278.409 206.563 270.088C196.894 261.767 192.061 249.522 192.061 233.355C192.061 217.585 197.409 204.193 208.107 193.178C218.885 182.083 231.724 176.535 246.623 176.535Z" class="" fill="#fb2c36" fill-opacity="1" stroke="#000000" stroke-opacity="1" stroke-width="8"></path><path d="M246.979 185.094C238.103 185.094 230.813 188.818 225.107 196.268C219.402 203.638 216.549 214.773 216.549 229.672C216.549 243.302 219.402 253.485 225.107 260.221C230.813 266.877 238.262 270.207 247.455 270.207C256.569 270.207 264.215 266.6 270.396 259.389C276.657 252.177 279.789 242.073 279.789 229.076C279.789 215.604 276.539 204.907 270.041 196.982C263.621 189.058 255.934 185.094 246.979 185.094Z" class="" fill="#ffffff" fill-opacity="1" stroke="#000000" stroke-opacity="1" stroke-width="8"></path><path d="M360.729 361.77C365.301 378.84 414.016 400.695 413.039 431.785C412.469 449.973 399.579 460.145 385.967 459.828L385.965 459.828C376.652 459.61 366.99 454.478 360.729 443.633C345.681 469.693 307.285 462.94 308.279 431.785C309.316 399.343 355.731 380.419 360.729 361.77Z" class="selected" fill="#fb2c36" fill-opacity="1" stroke="#000000" stroke-opacity="1" stroke-width="8"></path></g></g></svg>