<svg xmlns="http://www.w3.org/2000/svg" viewBox="0 0 512 512" style="height: 512px; width: 512px;"><g class="" transform="translate(-1,0)" style=""><g><path d="M119.436 36C103.31 36 90.236 53.237 90.236 74.5L90.236 437.5C90.236 458.763 103.31 476 119.436 476L394.734 476C410.86 476 423.932 458.763 423.932 437.5L423.932 74.5C423.932 53.237 410.86 36 394.734 36L119.436 36Z" class="" fill="#fff" fill-opacity="1" stroke="#000000" stroke-opacity="1" stroke-width="8"></path><path d="M146.32 39.717L193.713 97.987L146.32 156.273L98.945 97.986L146.32 39.716Z" class="" fill="#2b7fff" fill-opacity="1" stroke="#000000" stroke-opacity="1" stroke-width="8"></path><path d="M161.035 168.689L241.393 168.689L241.393 177.605L224.275 177.605C220.63 177.605 217.817 178.555 215.835 180.457C213.855 182.359 212.863 184.777 212.863 187.709L212.863 269.373L279.076 198.645C282.88 194.524 284.781 190.641 284.781 186.996C284.781 184.222 283.473 181.964 280.857 180.221C278.242 178.477 273.963 177.605 268.02 177.605L263.146 177.605L263.146 168.689L335.301 168.689L335.301 177.605L329.715 177.605C324.881 177.605 319.57 179.032 313.785 181.885C308 184.738 302.652 188.7 297.738 193.771L256.965 236.209L315.332 322.271C318.582 327.106 321.949 330.553 325.436 332.613C328.922 334.594 333.044 335.586 337.799 335.586L344.217 335.586L344.217 344.5L264.93 344.5L264.93 335.586L273.963 335.586C280.54 335.586 284.899 335.031 287.039 333.922C289.258 332.812 290.367 331.426 290.367 329.762C290.367 328.256 289.892 326.75 288.941 325.244L240.441 253.92L212.863 283.52L212.863 326.79C212.863 329.483 213.655 331.464 215.24 332.732C217.776 334.634 220.789 335.586 224.275 335.586L241.393 335.586L241.393 344.5L161.035 344.5L161.035 335.586L176.488 335.586C180.451 335.586 183.383 334.794 185.285 333.209C187.187 331.545 188.139 329.404 188.139 326.789L188.139 186.4C188.139 183.627 187.067 181.488 184.928 179.982C182.788 178.397 179.183 177.605 174.111 177.605L161.035 177.605L161.035 168.689Z" class="" fill="#2b7fff" fill-opacity="1" stroke="#000000" stroke-opacity="1" stroke-width="8"></path><path d="M365.662 352.523L413.055 410.793L365.662 469.08L318.287 410.793L365.662 352.523Z" class="selected" fill="#2b7fff" fill-opacity="1" stroke="#000000" stroke-opacity="1" stroke-width="8"></path></g></g></svg>