<svg xmlns="http://www.w3.org/2000/svg" viewBox="0 0 512 512" style="height: 512px; width: 512px;"><g class="" transform="translate(0,0)" style=""><g><path d="M119.436 36C103.31 36 90.236 53.237 90.236 74.5L90.236 437.5C90.236 458.763 103.31 476 119.436 476L394.734 476C410.86 476 423.932 458.763 423.932 437.5L423.932 74.5C423.932 53.237 410.86 36 394.734 36L119.436 36Z" class="" fill="#fff" fill-opacity="1" stroke="#000000" stroke-opacity="1" stroke-width="8"></path><path d="M146.32 39.717L193.713 97.987L146.32 156.273L98.945 97.986L146.32 39.716Z" class="" fill="#2b7fff" fill-opacity="1" stroke="#000000" stroke-opacity="1" stroke-width="8"></path><path d="M246.861 176.533C256.451 176.533 265.326 178.594 273.488 182.715C281.73 186.835 287.912 192.264 292.033 199C296.154 205.657 298.213 212.948 298.213 220.873C298.213 226.341 297.183 231.889 295.123 237.516C293.063 243.142 290.053 248.413 286.09 253.326C279.275 261.806 272.26 269.056 265.049 275.078L233.666 301.468C225.741 308.126 219.956 313.791 216.311 318.467C212.665 323.142 230.655 325.48 270.279 325.48C276.223 325.48 280.462 323.936 282.998 320.846C285.534 317.756 288.427 309.195 291.676 295.168L299.76 295.168L295.955 344.5L189.445 344.5L189.445 338.082L224.037 298.734C243.294 277.813 254.865 264.658 258.748 259.27C264.295 251.582 268.338 244.171 270.873 237.04C273.409 229.828 274.678 223.29 274.678 217.426C274.678 207.678 271.983 200.032 266.594 194.484C261.204 188.858 253.716 186.043 244.127 186.043C233.349 186.043 224.554 188.618 217.738 193.77C210.923 198.92 207.514 204.389 207.514 210.174C207.514 212.155 208.03 213.661 209.061 214.691C210.011 215.721 212.071 216.633 215.241 217.426C223.244 219.328 227.248 224.004 227.248 231.453C227.248 235.495 225.899 238.863 223.205 241.557C220.511 244.172 217.063 245.48 212.863 245.48C208.029 245.48 203.79 243.26 200.145 238.822C196.499 234.305 194.675 228.442 194.675 221.23C194.675 213.147 196.737 205.816 200.857 199.238C205.057 192.581 211.357 187.153 219.757 182.953C228.158 178.673 237.193 176.533 246.861 176.533Z" class="selected" fill="#2b7fff" fill-opacity="1" stroke="#000000" stroke-opacity="1" stroke-width="8"></path><path d="M365.662 352.523L413.055 410.793L365.662 469.08L318.287 410.793L365.662 352.523Z" class="" fill="#2b7fff" fill-opacity="1" stroke="#000000" stroke-opacity="1" stroke-width="8"></path></g></g></svg>