<svg xmlns="http://www.w3.org/2000/svg" viewBox="0 0 512 512" style="height: 512px; width: 512px;"><g class="" transform="translate(0,0)" style=""><g><path d="M119.436 36C103.31 36 90.236 53.237 90.236 74.5L90.236 437.502C90.236 458.765 103.31 476.002 119.436 476.002L394.734 476.002C410.86 476.002 423.932 458.765 423.932 437.502L423.932 74.5C423.932 53.237 410.86 36 394.734 36L119.436 36Z" class="" fill="#fff" fill-opacity="1" stroke="#000000" stroke-opacity="1" stroke-width="8"></path><path d="M146.32 39.719L193.713 97.989L146.32 156.275L98.945 97.988L146.32 39.718Z" class="" fill="#2b7fff" fill-opacity="1" stroke="#000000" stroke-opacity="1" stroke-width="8"></path><path d="M210.96 176.535C231.01 181.132 247.375 183.43 260.055 183.43C265.998 183.43 271.586 182.875 276.816 181.766C282.046 180.576 285.969 179.23 288.584 177.725C289.931 177.011 290.803 176.655 291.199 176.655C291.992 176.655 292.389 177.249 292.389 178.437C292.389 181.211 290.605 184.896 287.039 189.492C283.473 194.009 278.599 197.616 272.418 200.311C266.316 203.005 259.264 204.351 251.26 204.351C241.988 204.351 230.932 202.925 218.094 200.072L214.17 245.482C220.193 242.471 225.938 240.211 231.406 238.705C236.874 237.199 242.066 236.447 246.979 236.447C262.511 236.447 275.548 241.598 286.088 251.9C296.708 262.203 302.018 274.922 302.018 290.059C302.018 306.859 296.39 320.688 285.137 331.545C273.884 342.402 259.303 347.83 241.393 347.83C227.683 347.83 216.509 343.948 207.871 336.182C199.312 328.336 195.033 319.024 195.033 308.246C195.033 301.748 196.38 296.755 199.074 293.268C201.848 289.701 205.374 287.92 209.654 287.92C213.854 287.92 217.262 289.346 219.877 292.2C222.571 294.973 223.918 298.618 223.918 303.135C223.918 306.542 223.244 309.198 221.896 311.1C220.628 313.002 218.253 314.586 214.766 315.854C211.279 317.201 209.536 318.747 209.536 320.49C209.536 323.026 210.724 325.839 213.102 328.93C215.479 331.941 219.044 334.437 223.799 336.418C228.633 338.32 234.141 339.271 240.322 339.271C252.447 339.271 261.68 335.507 268.02 327.979C274.439 320.449 277.648 308.207 277.648 291.248C277.648 275.795 274.281 264.501 267.545 257.369C260.809 250.237 252.209 246.669 241.748 246.669C236.993 246.669 232.239 247.542 227.484 249.285C222.729 251.029 217.974 253.644 213.219 257.131C212.664 262.678 211.674 266.403 210.249 268.305C208.822 270.127 206.999 271.039 204.779 271.039C203.194 271.039 201.928 270.484 200.977 269.375C200.026 268.265 199.549 266.719 199.549 264.738C199.549 261.251 201.175 257.804 204.424 254.396C205.374 253.366 206.047 252.456 206.444 251.664L209.178 216.714C210.288 202.926 210.882 189.532 210.961 176.535Z" class="" fill="#2b7fff" fill-opacity="1" stroke="#000000" stroke-opacity="1" stroke-width="8"></path><path d="M365.66 352.523L365.662 352.523L413.055 410.795L365.662 469.082L318.287 410.795L365.66 352.523Z" class="selected" fill="#2b7fff" fill-opacity="1" stroke="#000000" stroke-opacity="1" stroke-width="8"></path></g></g></svg>