<svg xmlns="http://www.w3.org/2000/svg" viewBox="0 0 512 512" style="height: 512px; width: 512px;"><g class="" transform="translate(0,0)" style=""><g><path d="M119.436 36C103.31 36 90.236 53.237 90.236 74.5L90.236 437.5C90.236 458.763 103.31 476 119.436 476L394.734 476C410.86 476 423.932 458.763 423.932 437.5L423.932 74.5C423.932 53.237 410.86 36 394.734 36L119.436 36Z" class="selected" fill="#fff" fill-opacity="1" stroke="#000000" stroke-opacity="1" stroke-width="8"></path><path d="M146.32 39.717L146.322 39.717L193.715 97.988L146.322 156.275L98.945 97.986L146.32 39.716Z" class="" fill="#2b7fff" fill-opacity="1" stroke="#000000" stroke-opacity="1" stroke-width="8"></path><path d="M246.623 176.535C261.522 176.535 273.409 180.537 282.285 188.541C291.161 196.545 295.6 206.451 295.6 218.26C295.6 226.74 293.182 234.069 288.348 240.25C283.593 246.431 275.352 251.9 263.623 256.654C274.955 259.428 283.791 264.024 290.131 270.444C298.214 278.606 302.256 288.71 302.256 300.756C302.256 314.386 297.422 325.323 287.754 333.564C276.739 343.074 262.395 347.83 244.723 347.83C234.103 347.83 224.949 346.087 217.262 342.6C209.654 339.113 203.948 334.397 200.145 328.453C196.341 322.51 194.439 315.815 194.439 308.365C194.439 302.342 195.906 297.587 198.838 294.1C201.77 290.613 205.455 288.87 209.893 288.87C213.934 288.87 217.183 290.216 219.641 292.91C222.097 295.525 223.324 299.132 223.324 303.729C223.324 306.661 222.692 309.156 221.424 311.217C220.156 313.198 217.935 315.061 214.766 316.805C211.358 318.627 209.654 320.371 209.654 322.035C209.654 324.413 210.844 327.105 213.221 330.117C215.678 333.049 219.244 335.427 223.92 337.25C228.675 338.993 234.658 339.865 241.87 339.865C254.311 339.865 263.504 336.815 269.447 330.713C275.47 324.532 278.482 314.665 278.482 301.113C278.482 286.928 275.905 276.863 270.754 270.92C265.682 264.897 258.115 261.885 248.051 261.885C245.356 261.885 241.987 262.202 237.945 262.835C234.696 263.311 232.36 263.549 230.934 263.549C228.556 263.549 226.693 263.074 225.346 262.123C224.078 261.093 223.443 259.824 223.443 258.318C223.443 256.654 224.038 255.388 225.227 254.516C226.495 253.565 228.515 253.088 231.289 253.088L237.829 253.326L243.533 253.564C253.598 253.564 261.166 250.989 266.238 245.838C271.31 240.687 273.846 232.721 273.846 221.943C273.846 208.709 271.428 199.319 266.594 193.771C261.76 188.145 254.548 185.332 244.959 185.332C236.162 185.332 229.15 186.916 223.919 190.086C218.689 193.256 216.074 196.188 216.074 198.883C216.074 200.626 217.58 202.964 220.592 205.896C224.872 209.859 227.01 213.98 227.01 218.26C227.01 221.509 225.82 224.242 223.443 226.46C221.066 228.68 218.016 229.79 214.291 229.79C210.329 229.79 207.079 228.285 204.543 225.273C202.086 222.262 200.857 218.061 200.857 212.672C200.857 204.272 203.87 196.822 209.893 190.324C218.451 181.131 230.694 176.535 246.623 176.535Z" class="" fill="#2b7fff" fill-opacity="1" stroke="#000000" stroke-opacity="1" stroke-width="8"></path><path d="M365.663 352.523L365.664 352.523L413.054 410.795L365.664 469.082L318.287 410.793L365.662 352.523Z" class="" fill="#2b7fff" fill-opacity="1" stroke="#000000" stroke-opacity="1" stroke-width="8"></path></g></g></svg>