<svg xmlns="http://www.w3.org/2000/svg" viewBox="0 0 512 512" style="height: 512px; width: 512px;"><g class="" transform="translate(0,0)" style=""><g><path d="M81 21.499C68.19 21.499 58 31.691 58 44.501C58 57.311 68.19 67.501 81 67.501C93.81 67.501 104.002 57.311 104.002 44.501C104.002 31.691 93.81 21.499 81 21.499Z" class="" fill="#364153" fill-opacity="1" stroke="#000000" stroke-opacity="1" stroke-width="4"></path><path d="M431 21.499C418.19 21.499 407.998 31.691 407.998 44.501C407.998 57.311 418.19 67.501 431 67.501C443.81 67.501 454 57.311 454 44.501C454 31.691 443.81 21.499 431 21.499Z" class="" fill="#364153" fill-opacity="1" stroke="#000000" stroke-opacity="1" stroke-width="4"></path><path d="M110.18 73.212C105.925 77.545 100.765 80.885 95.07 82.993L123.736 128.86L138.719 118.872Z" class="" fill="#d1d5dc" fill-opacity="1" stroke="#000000" stroke-opacity="1" stroke-width="4"></path><path d="M401.82 73.212L373.281 118.872L388.264 128.86L416.93 82.993C411.235 80.885 406.075 77.545 401.82 73.212Z" class="" fill="#d1d5dc" fill-opacity="1" stroke="#000000" stroke-opacity="1" stroke-width="4"></path><path d="M158.854 127.082L122.711 151.177L129.363 171.132C138.578 158.71 152.702 149.145 168.977 142.22C170.149 141.72 171.347 141.247 172.545 140.772Z" class="" fill="#364153" fill-opacity="1" stroke="#000000" stroke-opacity="1" stroke-width="4"></path><path d="M353.146 127.082L339.456 140.772C340.653 141.247 341.851 141.721 343.023 142.22C359.298 149.145 373.422 158.71 382.637 171.132L389.289 151.177Z" class="" fill="#364153" fill-opacity="1" stroke="#000000" stroke-opacity="1" stroke-width="4"></path><path d="M256 144.5C227 144.5 197.979 149.439 176.023 158.781C154.125 168.1 140.115 181.161 136.859 197.145L106.28 426.5L405.722 426.5L375.142 197.145C371.886 181.161 357.876 168.1 335.978 158.781C314.02 149.44 285 144.501 256 144.501Z" class="" fill="#364153" fill-opacity="1" stroke="#000000" stroke-opacity="1" stroke-width="4"></path><path d="M192 202.5C223.373 202.5 249 228.127 249 259.5C249 290.873 223.373 316.5 192 316.5C160.627 316.5 135 290.873 135 259.5C135 228.127 160.627 202.5 192 202.5Z" class="" fill="#fff" fill-opacity="1" stroke="#000000" stroke-opacity="1" stroke-width="4"></path><path d="M320 202.5C351.373 202.5 377 228.127 377 259.5C377 290.873 351.373 316.5 320 316.5C288.627 316.5 263 290.873 263 259.5C263 228.127 288.627 202.5 320 202.5Z" class="" fill="#fff" fill-opacity="1" stroke="#000000" stroke-opacity="1" stroke-width="4"></path><path d="M191.451 218.523C168.697 218.523 149.904 236.889 149.904 259.5C149.904 282.111 168.697 300.477 191.451 300.477C214.205 300.477 233 282.111 233 259.5C233 236.889 214.205 218.523 191.451 218.523Z" class="" fill="#fff" fill-opacity="1"></path><path d="M319.451 218.523C296.697 218.523 277.904 236.889 277.904 259.5C277.904 282.111 296.697 300.477 319.451 300.477C342.205 300.477 361 282.111 361 259.5C361 236.889 342.205 218.523 319.451 218.523Z" class="" fill="#fff" fill-opacity="1"></path><path d="M191.451 236.521C204.649 236.521 215 246.79 215 259.5C215 272.21 204.65 282.478 191.451 282.478C178.253 282.478 167.902 272.21 167.902 259.5C167.902 246.79 178.253 236.521 191.452 236.521Z" class="" fill="#000000" fill-opacity="1" stroke="#000000" stroke-opacity="1" stroke-width="4"></path><path d="M319.451 236.521C332.649 236.521 343 246.79 343 259.5C343 272.21 332.65 282.478 319.451 282.478C306.253 282.478 295.902 272.21 295.902 259.5C295.902 246.79 306.253 236.521 319.452 236.521Z" class="" fill="#000000" fill-opacity="1" stroke="#000000" stroke-opacity="1" stroke-width="4"></path><path d="M208 330.501L304 330.501L304 348.501L208 348.501Z" class="" fill="#d1d5dc" fill-opacity="1" stroke="#000000" stroke-opacity="1" stroke-width="4"></path><path d="M192 362.501L320 362.501L320 380.501L192 380.501Z" class="" fill="#d1d5dc" fill-opacity="1" stroke="#000000" stroke-opacity="1" stroke-width="4"></path><path d="M176 394.501L336 394.501L336 412.501L176 412.501Z" class="" fill="#d1d5dc" fill-opacity="1" stroke="#000000" stroke-opacity="1" stroke-width="4"></path><path d="M73 444.501L73 490.501L119 490.501L119 444.501Z" class="" fill="#364153" fill-opacity="1" stroke="#000000" stroke-opacity="1" stroke-width="4"></path><path d="M137 444.501L137 490.501L183 490.501L183 444.501Z" class="" fill="#364153" fill-opacity="1" stroke="#000000" stroke-opacity="1" stroke-width="4"></path><path d="M201 444.501L201 490.501L247 490.501L247 444.501Z" class="" fill="#364153" fill-opacity="1" stroke="#000000" stroke-opacity="1" stroke-width="4"></path><path d="M265 444.501L265 490.501L311 490.501L311 444.501Z" class="" fill="#364153" fill-opacity="1" stroke="#000000" stroke-opacity="1" stroke-width="4"></path><path d="M329 444.501L329 490.501L375 490.501L375 444.501Z" class="" fill="#364153" fill-opacity="1" stroke="#000000" stroke-opacity="1" stroke-width="4"></path><path d="M393 444.501L393 490.501L439 490.501L439 444.501Z" class="selected" fill="#364153" fill-opacity="1" stroke="#000000" stroke-opacity="1" stroke-width="4"></path></g></g></svg>