<svg xmlns="http://www.w3.org/2000/svg" height="48px" viewBox="0 -960 960 960" width="48px" fill="#000000"><path d="M229-62q-36.78 0-63.89-27.11T138-153v-415q0-38.59 27.11-65.29Q192.22-660 229-660h53v-74q0-83.97 57.73-142.48 57.73-58.52 140-58.52Q562-935 620-876.48q58 58.51 58 142.48v74h53q37.19 0 64.59 26.71Q823-606.59 823-568v415q0 36.78-27.41 63.89Q768.19-62 731-62H229Zm0-91h502v-415H229v415Zm304.5-153.62q21.5-21.61 21.5-51.96Q555-388 533.25-412t-53.5-24q-31.75 0-53.25 23.94-21.5 23.93-21.5 53.64 0 30.12 21.75 51.77Q448.5-285 480.25-285t53.25-21.62ZM373-660h214v-73.77q0-47.73-30.76-78.48-30.77-30.75-76-30.75Q435-843 404-812.25q-31 30.75-31 78.48V-660ZM229-153v-415 415Z"/></svg>