<svg xmlns="http://www.w3.org/2000/svg" viewBox="0 0 512 512" style="height: 512px; width: 512px;"><g class="" transform="translate(0,0)" style=""><g><path d="M260.22 58.28C227.07 58.28 199.457 81.17 192.22 112.062L328.22 112.062C320.98 81.172 293.37 58.282 260.22 58.282Z" class="" fill="#6a7282" fill-opacity="1" stroke="#000000" stroke-opacity="1" stroke-width="8"></path><path d="M146.06 130.75L146.06 324.938L381.22 324.938L381.22 130.75L146.06 130.75Z" class="" fill="#6a7282" fill-opacity="1" stroke="#000000" stroke-opacity="1" stroke-width="8"></path><path d="M263.123 154.875C295.198 154.875 321.403 181.082 321.403 213.155C321.403 245.23 295.197 271.437 263.123 271.437C231.049 271.437 204.843 245.23 204.843 213.157C204.843 181.081 231.049 154.875 263.123 154.875Z" class="" fill="#000000" fill-opacity="1" stroke="#000000" stroke-opacity="1" stroke-width="8"></path><path d="M127.373 195.095C89.575 203.614 59.773 232.654 50.279 270.219C46.841 271.065 43.539 272.39 40.469 274.155C22.309 284.607 15.999 308.062 26.499 326.185L42.655 316.843C37.227 307.473 40.359 295.765 49.78 290.343L49.937 290.28C59.333 284.978 71.037 288.145 76.437 297.47C81.867 306.844 78.737 318.513 69.313 323.937L78.625 340.125C96.785 329.672 103.091 306.22 92.595 288.095C91.199 285.69 89.542 283.447 87.655 281.405C92.668 260.945 107.86 244.719 127.375 237.405L127.375 195.095Z" class="" fill="#6a7282" fill-opacity="1" stroke="#000000" stroke-opacity="1" stroke-width="8"></path><path d="M399.903 198.345L399.903 242.969C413.83 251.529 424.26 265.124 428.248 281.405C426.362 283.447 424.706 285.69 423.31 288.093C412.813 306.219 419.12 329.671 437.28 340.123L446.592 323.936C437.167 318.512 434.037 306.843 439.467 297.468C444.894 288.093 456.701 284.918 466.122 290.342C475.542 295.764 478.675 307.472 473.247 316.842L489.403 326.186C499.903 308.061 493.593 284.606 475.433 274.154C472.364 272.389 469.061 271.063 465.623 270.217C457.161 236.75 432.48 209.758 399.903 198.341Z" class="" fill="#6a7282" fill-opacity="1" stroke="#000000" stroke-opacity="1" stroke-width="8"></path><path d="M175.623 343.625L175.623 376.75C181.228 375.15 187.366 374.25 194.061 374.25C202.213 374.25 209.536 375.472 216.061 377.656L216.061 343.626L175.623 343.626Z" class="selected" fill="#6a7282" fill-opacity="1" stroke="#000000" stroke-opacity="1" stroke-width="8"></path><path d="M317.311 343.625L317.311 377.095C323.374 375.269 330.091 374.25 337.498 374.25C344.922 374.25 351.662 375.335 357.748 377.28L357.748 343.625L317.31 343.625Z" class="" fill="#6a7282" fill-opacity="1" stroke="#000000" stroke-opacity="1" stroke-width="8"></path><path d="M194.061 392.938C172.496 392.938 162.423 402.261 155.311 416.313C149.635 427.523 147.056 441.878 145.873 455.031L242.311 455.031C241.259 441.747 239.026 427.381 233.561 416.221C226.728 402.268 216.827 392.938 194.061 392.938Z" class="" fill="#6a7282" fill-opacity="1" stroke="#000000" stroke-opacity="1" stroke-width="8"></path><path d="M337.498 392.938C314.732 392.938 304.83 402.268 297.998 416.218C292.532 427.38 290.3 441.746 289.248 455.031L385.686 455.031C384.503 441.879 381.923 427.525 376.248 416.314C369.135 402.262 359.062 392.939 337.498 392.939Z" class="" fill="#6a7282" fill-opacity="1" stroke="#000000" stroke-opacity="1" stroke-width="8"></path></g></g></svg>