<svg xmlns="http://www.w3.org/2000/svg" height="48px" viewBox="0 -960 960 960" width="48px" fill="#6a7282"><path d="M598.5-381.5Q647-430 647-500t-48.5-118.5Q550-667 480-667t-118.5 48.5Q313-570 313-500t48.5 118.5Q410-333 480-333t118.5-48.5ZM412-431.94q-28-27.94-28-68T411.94-568q27.94-28 68-28T548-568.06q28 27.94 28 68T548.06-432q-27.94 28-68 28T412-431.94ZM205.5-269Q82-358 21-500q61-142 184.5-231T480-820q151 0 274.5 89T939-500q-61 142-184.5 231T480-180q-151 0-274.5-89ZM480-500Zm220.87 174.92Q800.74-390.16 854-500q-53.26-109.84-153.22-174.92Q600.82-740 479.91-740 359-740 258.63-674.92T105-500q53.26 109.84 153.72 174.92Q359.18-260 480.09-260q120.91 0 220.78-65.08Z"/></svg>