<svg xmlns="http://www.w3.org/2000/svg" viewBox="0 0 512 512" style="height: 512px; width: 512px;"><g class="" transform="translate(0,0)" style=""><g><path d="M255.875 19.47C222.733 19.47 196.031 46.292 196.031 79.656C196.031 113.02 222.734 139.812 255.876 139.812C289.018 139.812 315.751 113.02 315.751 79.656C315.751 46.292 289.017 19.47 255.875 19.47Z" class="" fill="#efb100" fill-opacity="1" stroke="#000000" stroke-opacity="1" stroke-width="8"></path><path d="M205.187 139.813C202.279 141.043 199.529 142.343 197 143.75C182.533 151.796 175.53 161.61 175.53 170.844C175.53 180.078 182.533 189.924 197 197.969C211.467 206.013 232.51 211.405 255.875 211.405C279.24 211.405 300.283 206.013 314.75 197.968C329.217 189.921 336.22 180.076 336.22 170.842C336.22 161.608 329.217 151.794 314.75 143.748C312.22 142.342 309.47 141.04 306.562 139.81C292.866 151.457 275.17 158.498 255.875 158.498C236.575 158.498 218.879 151.464 205.187 139.81Z" class="" fill="#efb100" fill-opacity="1" stroke="#000000" stroke-opacity="1" stroke-width="8"></path><path d="M284.062 227.719C275.114 229.259 265.668 230.093 255.875 230.093C246.873 230.1 237.886 229.379 229 227.937C231.705 234.871 233.358 242.17 233.906 249.593C236.362 283.147 216.866 319.166 175.436 343.187L175.281 343.28L175.126 343.375C155.064 354.028 144.846 367.431 144.846 380.345C144.846 393.245 155.126 406.805 175.189 417.562C195.251 428.322 224.049 435.406 255.939 435.406C287.829 435.406 316.626 428.321 336.689 417.562C356.751 406.804 367.032 393.244 367.032 380.344C367.032 367.217 356.259 353.688 335.377 342.938L335.157 342.813L334.971 342.719C294.627 319.325 276.266 283.043 279.063 249.499C279.683 242.038 281.367 234.704 284.063 227.719Z" class="selected" fill="#efb100" fill-opacity="1" stroke="#000000" stroke-opacity="1" stroke-width="8"></path><path d="M128.845 395.655C123.253 399.375 118.589 403.265 114.97 407.185C108.07 414.665 105.03 421.825 105.03 429.03C105.03 436.236 108.07 443.427 114.97 450.906C121.868 458.386 132.57 465.758 146.25 472.031C173.61 484.578 212.67 492.721 255.875 492.721C299.081 492.721 338.17 484.578 365.531 472.031C379.213 465.761 389.883 458.387 396.781 450.907C403.681 443.427 406.751 436.237 406.751 429.032C406.751 421.828 403.681 414.669 396.781 407.19C393.184 403.288 388.543 399.423 383.001 395.72C377.363 411.32 363.417 424.426 345.501 434.033C321.968 446.653 290.554 454.128 255.938 454.128C221.323 454.128 189.878 446.654 166.345 434.034C148.405 424.414 134.458 411.287 128.845 395.66Z" class="" fill="#000000" fill-opacity="1" stroke="#000000" stroke-opacity="1" stroke-width="8"></path></g></g></svg>