<svg xmlns="http://www.w3.org/2000/svg" height="48px" viewBox="0 -960 960 960" width="48px" fill="#000000"><path d="M687.21-59q-55.38 0-95.29-39.42Q552-137.83 552-193q0-8 5-26.83L284-379q-19.38 17.28-41.46 26.14Q220.45-344 194.5-344q-57.04 0-96.27-39.85Q59-423.71 59-480.43q0-56.73 39.16-96.65Q137.32-617 194.26-617q26.45 0 48.73 9.83Q265.28-597.34 284-582l272-156q-2-7-3-14.04-1-7.04-1-13.48 0-55.81 40-96.65Q632-903 688-903q53.5 0 94.25 41.25T823-766q0 54.5-40.77 94.75T687.5-631q-26.68 0-50.09-10.5Q614-652 597-667L325-518.04q3 8.9 4.5 19.38 1.5 10.49 1.5 18.88 0 8.4-.5 17.74-.5 9.34-4.5 17.04l270 153q20.03-17.06 41.81-27.03 21.77-9.97 50.38-9.97 55.23 0 95.02 40.36Q823-248.27 823-192.97q0 54.89-41.04 94.43Q740.91-59 687.21-59Zm-.7-84q22.04 0 37.27-14.54Q739-172.07 739-193.56q0-21.49-14.93-36.47Q709.13-245 686.05-245q-21.05 0-35.55 15.23Q636-214.53 636-193.7q0 21.28 14.23 35.99Q664.47-143 686.51-143ZM193.7-428q20.85 0 37.07-14.82 16.23-14.81 16.23-37 0-22.18-16.23-37.68T193.36-533q-21.18 0-35.77 15.32Q143-502.37 143-480.18 143-458 157.58-443q14.57 15 36.12 15ZM724-729.92q15-14.93 15-36.99 0-20.51-14.93-36.3-14.93-15.79-37-15.79T650-803.19q-15 15.81-15 37.72 0 21.06 15.12 35.76 15.13 14.71 37 14.71Q709-715 724-729.92ZM689-194ZM195-480Zm493-287Z"/></svg>