<svg xmlns="http://www.w3.org/2000/svg" viewBox="0 0 512 512" style="height: 512px; width: 512px;"><g class="" transform="translate(0,0)" style=""><g><path d="M384 64C348.654 64 320 92.654 320 128C320.031 131.792 320.399 135.573 321.1 139.3L174.8 212.5C162.722 199.466 145.769 192.04 128 192C92.654 192 64 220.654 64 256C64 291.346 92.654 320 128 320C145.769 319.96 162.722 312.534 174.8 299.5L321 372.7C320.333 376.43 319.998 380.211 320 384C320 419.346 348.654 448 384 448C419.346 448 448 419.346 448 384C448 348.654 419.346 320 384 320C366.231 320.04 349.278 327.466 337.2 340.5L191 267.4C191.673 263.637 192.008 259.822 192 256C191.975 252.175 191.607 248.359 190.9 244.6L337.2 171.5C349.278 184.534 366.231 191.96 384 192C419.346 192 448 163.346 448 128C448 92.654 419.346 64 384 64Z" class="selected" fill="#2b7fff" fill-opacity="1" stroke="#000000" stroke-opacity="1" stroke-width="8"></path></g></g></svg>