<svg xmlns="http://www.w3.org/2000/svg" viewBox="0 0 512 512" style="height: 512px; width: 512px;"><g class="" transform="translate(0,0)" style=""><g><path d="M389.094 253.12L122.962 253.12C44.485 253.107 -4.577 338.054 34.65 406.023C73.878 473.993 171.975 474.009 211.224 406.052C211.545 405.497 211.86 404.939 212.17 404.378L299.83 404.378C337.791 473.063 435.871 474.897 476.373 407.679C516.875 340.461 469.424 254.605 390.96 253.138C390.338 253.126 389.716 253.12 389.094 253.12Z" class="" fill="#fb2c36" fill-opacity="1" stroke="#000000" stroke-opacity="1" stroke-width="8"></path><path d="M165.69 362.62L135.553 362.62L135.553 392.758L103.935 392.758L103.935 362.62L73.795 362.62L73.795 331.002L103.925 331.002L103.925 300.874L135.542 300.874L135.542 331.002L165.692 331.002L165.692 362.62Z" class="" fill="#000000" fill-opacity="1" stroke="#000000" stroke-opacity="1" stroke-width="8"></path><path d="M356.686 369.756C342.882 369.773 334.236 354.84 341.123 342.877C348.011 330.914 365.266 330.893 372.183 342.839C373.763 345.569 374.596 348.669 374.596 351.824C374.596 361.723 366.575 369.749 356.676 369.756Z" class="" fill="#000000" fill-opacity="1" stroke="#000000" stroke-opacity="1" stroke-width="8"></path><path d="M397.608 410.679C383.804 410.688 375.166 395.751 382.06 383.791C388.954 371.832 406.21 371.821 413.12 383.771C414.699 386.502 415.53 389.602 415.528 392.757C415.521 402.655 407.496 410.676 397.598 410.677Z" class="" fill="#000000" fill-opacity="1" stroke="#000000" stroke-opacity="1" stroke-width="8"></path><path d="M397.608 328.821C383.804 328.821 375.176 313.878 382.078 301.923C388.98 289.968 406.236 289.968 413.138 301.923C414.711 304.649 415.54 307.741 415.54 310.889C415.547 320.802 407.51 328.839 397.597 328.833Z" class="" fill="#000000" fill-opacity="1" stroke="#000000" stroke-opacity="1" stroke-width="8"></path><path d="M438.531 369.744C424.727 369.743 416.1 354.799 423.003 342.845C429.906 330.891 447.161 330.892 454.062 342.847C455.636 345.573 456.464 348.665 456.464 351.812C456.47 361.72 448.44 369.755 438.532 369.755Z" class="" fill="#000000" fill-opacity="1" stroke="#000000" stroke-opacity="1" stroke-width="8"></path><path d="M260.546 18.99L280.149 18.99C284.135 29.56 285.309 39.316 283.661 48.225C279.618 70.617 259.609 83.592 240.221 96.137C218.596 110.162 198.181 123.419 199.749 148.341C201.443 175.241 218.156 189.231 235.884 204.046C246.566 212.989 257.881 222.463 265.244 235.054L243.044 235.054C237.826 229.238 231.356 223.762 224.298 217.901C205.384 202.091 183.952 184.115 181.761 149.481C179.503 114.014 206.604 96.466 230.431 80.984C247.311 70.042 263.245 59.642 265.944 44.964C267.321 37.624 265.537 29.041 260.546 18.991Z" class="selected" fill="#000000" fill-opacity="1" stroke="#000000" stroke-opacity="1" stroke-width="8"></path></g></g></svg>